<svg xmlns="http://www.w3.org/2000/svg" version="1.1" width="250" height="173" viewBox="0 0 2496 1728">
  <path d="M0 0 C1.18455276 0.00889755 1.18455276 0.00889755 2.39303589 0.01797485 C37.79796752 0.28794076 71.95231962 8.64020008 100.125 31.3125 C101.43597656 32.33923828 101.43597656 32.33923828 102.7734375 33.38671875 C122.29856626 48.96765961 138.51920578 66.69025206 151.01757812 88.39453125 C152.07695364 90.22928743 153.15413632 92.0524744 154.234375 93.875 C171.74403313 123.79789153 182.81319113 154.94972455 191.58404541 188.26702881 C192.07357052 190.11803355 192.57214564 191.96663906 193.07177734 193.81494141 C203.33023273 231.90678237 206.32147047 272.32681204 207.07354736 311.63964844 C207.13250797 314.7025225 207.19498302 317.76531791 207.25732422 320.828125 C207.54217219 335.04965736 207.7760762 349.27087871 207.96081543 363.49401855 C208.04665705 369.82651986 208.16272692 376.15502796 208.35964966 382.48504639 C209.01159116 403.83202729 207.34573013 424.74190152 204.9375 445.9375 C204.79151367 447.22686462 204.64552734 448.51622925 204.49511719 449.84466553 C201.36188324 477.04031987 197.03418946 503.91408712 190.75 530.5625 C190.26026778 532.66176811 189.77060403 534.76105219 189.28100586 536.86035156 C187.91686423 542.68288454 186.52838156 548.49930962 185.125 554.3125 C184.95248718 555.02873535 184.77997437 555.7449707 184.60223389 556.48291016 C176.22277157 591.12832444 164.3483166 626.0807977 149.125 658.3125 C148.82303711 658.95493652 148.52107422 659.59737305 148.20996094 660.25927734 C137.54480004 682.74585444 124.97579192 705.04938482 109.125 724.3125 C108.465 725.14394531 107.805 725.97539063 107.125 726.83203125 C101.12938861 734.31583904 94.71834466 741.35784383 88.125 748.3125 C87.4134375 749.06660156 86.701875 749.82070313 85.96875 750.59765625 C68.02991757 769.08788722 45.24857911 782.63042995 21.5 792.1875 C20.59475586 792.55713867 19.68951172 792.92677734 18.75683594 793.30761719 C5.28133722 798.53123852 -7.76418371 799.80955501 -22.05273438 799.70361328 C-24.60862295 799.68760259 -27.16291045 799.7035169 -29.71875 799.72265625 C-44.79943059 799.74374609 -60.00695079 798.47376298 -74.1875 793 C-75.01741455 792.69296143 -75.8473291 792.38592285 -76.70239258 792.06958008 C-79.10200893 791.17160971 -81.48921095 790.2464757 -83.875 789.3125 C-84.52307617 789.06628906 -85.17115234 788.82007813 -85.83886719 788.56640625 C-103.8070492 781.70106741 -120.87366822 770.98923582 -134.1796875 757.04296875 C-136.02332807 755.09716201 -136.02332807 755.09716201 -138.9375 752.8125 C-141.93993645 750.25723493 -144.37699333 747.57076713 -146.91796875 744.5703125 C-148.25442479 743.02845303 -149.63490126 741.52394896 -151.05078125 740.0546875 C-165.29131135 725.18487048 -175.81325034 707.15189616 -185.875 689.3125 C-186.29088379 688.57999023 -186.70676758 687.84748047 -187.13525391 687.09277344 C-201.88046768 660.91337839 -211.14837223 632.92224379 -219.875 604.3125 C-219.80498779 605.36937012 -219.73497559 606.42624023 -219.6628418 607.51513672 C-218.7794532 621.82166877 -218.67454433 636.10708754 -218.6875 650.4375 C-218.68810425 651.67471802 -218.6887085 652.91193604 -218.68933105 654.18664551 C-218.71507264 673.64414686 -219.09268754 692.9279902 -220.875 712.3125 C-220.96267639 713.29515839 -220.96267639 713.29515839 -221.05212402 714.29766846 C-222.8807308 734.74543269 -225.76879888 755.02346877 -228.875 775.3125 C-229.04235657 776.41002594 -229.20971313 777.50755188 -229.38214111 778.63833618 C-231.52460499 792.60993014 -233.96920107 806.47904233 -236.875 820.3125 C-235.93269531 820.25191406 -234.99039062 820.19132812 -234.01953125 820.12890625 C-196.26680404 817.84798898 -158.42429814 818.15357651 -120.62084693 818.18393105 C-115.37547996 818.18770289 -110.1301319 818.1863355 -104.88476562 818.18212891 C-59.73833773 818.14719756 -14.89296181 818.65350858 30.14758301 821.9876709 C33.80947811 822.25596622 37.47209941 822.51352054 41.13474178 822.77137852 C66.62405616 824.57095204 91.98345081 826.51882996 117.0625 831.625 C118.59834509 831.93169617 120.13423469 832.23816954 121.67016602 832.54443359 C126.15962109 833.44580364 130.6434568 834.37264234 135.125 835.3125 C135.78741699 835.45125549 136.44983398 835.59001099 137.13232422 835.73297119 C173.95206669 843.4813707 173.95206669 843.4813707 181.125 854.3125 C183.03860426 858.13970852 182.39683213 862.78951991 182.4375 867 C182.46650391 867.98162109 182.49550781 868.96324219 182.52539062 869.97460938 C182.58963945 877.34345486 181.54749861 881.76541364 176.30078125 887.203125 C175.68589844 887.65171875 175.07101562 888.1003125 174.4375 888.5625 C173.83550781 889.02140625 173.23351563 889.4803125 172.61328125 889.953125 C157.33432564 898.30018395 138.37838929 897.58912207 121.5 897.5625 C120.67868591 897.56172455 119.85737183 897.5609491 119.01116943 897.56015015 C116.57762693 897.55350941 114.14439235 897.53703748 111.7109375 897.515625 C111.01415894 897.51123917 110.31738037 897.50685333 109.5994873 897.50233459 C105.06574369 897.44232241 100.5536632 897.22637825 96.02787876 896.94894505 C85.54131514 896.31157201 75.09384849 896.15018917 64.58984375 896.14453125 C62.72958334 896.14052727 60.86932332 896.13633605 59.00906372 896.13197327 C53.02686675 896.12064407 47.04470431 896.12231551 41.0625 896.125 C38.9898173 896.12494387 36.9171346 896.1248828 34.8444519 896.12481689 C-4.08713689 896.13400241 -42.97211869 896.82470307 -81.875 898.3125 C-83.39486511 898.37050781 -83.39486511 898.37050781 -84.94543457 898.4296875 C-95.71889643 898.84969454 -106.47711461 899.41832484 -117.23468018 900.13671875 C-120.23551533 900.33650158 -123.23665114 900.531442 -126.23779297 900.7265625 C-150.79473577 902.33416463 -175.3189622 904.05325971 -199.77661133 906.80761719 C-215.08121484 908.51978492 -230.42398073 909.73242806 -245.77734375 910.91796875 C-247.73046893 911.07291438 -249.68359394 911.22786219 -251.63671875 911.3828125 C-252.5091069 911.4472757 -253.38149506 911.51173889 -254.28031921 911.57815552 C-267.29887152 912.08858708 -267.29887152 912.08858708 -277.875 918.3125 C-279.35354328 920.88407681 -280.72428267 923.49947989 -282.08984375 926.1328125 C-284.41059472 930.26649146 -287.12604895 934.01511784 -289.92285156 937.83520508 C-292.5880557 941.48526843 -295.12758028 945.18489595 -297.58325195 948.97900391 C-304.50468859 959.65464977 -312.39128325 969.21879404 -321.609375 978.01953125 C-323.56307877 979.99681421 -325.37034123 982.01710126 -327.18359375 984.12109375 C-338.16807481 996.75954641 -350.71161581 1006.50336239 -364.875 1015.3125 C-366.07772574 1016.08061943 -367.27961332 1016.85005361 -368.48046875 1017.62109375 C-387.35205422 1029.54829651 -407.87413731 1036.95716139 -429.375 1042.6875 C-430.57753418 1043.00895996 -431.78006836 1043.33041992 -433.01904297 1043.66162109 C-436.62776214 1044.59473206 -440.24444186 1045.46849392 -443.875 1046.3125 C-445.09243896 1046.60165283 -446.30987793 1046.89080566 -447.56420898 1047.1887207 C-459.01284674 1049.64361275 -470.25978076 1049.82655731 -481.9375 1049.75 C-482.93356262 1049.74662628 -483.92962524 1049.74325256 -484.95587158 1049.73977661 C-499.59410633 1049.6678894 -513.66892484 1049.13943148 -527.875 1045.3125 C-528.79716309 1045.07644043 -529.71932617 1044.84038086 -530.66943359 1044.59716797 C-558.45137793 1037.35396816 -582.91120232 1024.95453331 -603.875 1005.3125 C-605.31746094 1003.96865234 -605.31746094 1003.96865234 -606.7890625 1002.59765625 C-614.53434158 995.21157124 -620.78168735 987.09262768 -626.875 978.3125 C-632.04012969 978.88195413 -636.90073414 979.70916872 -641.9375 981.03515625 C-642.61751572 981.21213547 -643.29753143 981.38911469 -643.99815369 981.57145691 C-645.49562859 981.96141382 -646.9925515 982.35349517 -648.48898315 982.74743652 C-652.76161294 983.87121166 -657.03911217 984.97616575 -661.31640625 986.08203125 C-662.27124405 986.32915863 -663.22608185 986.57628601 -664.20985413 986.8309021 C-677.68960915 990.31017264 -691.20022772 993.66773523 -704.70770264 997.03739548 C-707.46054296 997.72417366 -710.2132847 998.41134656 -712.96602917 999.09850883 C-714.96831463 999.59828543 -716.97064262 1000.09789134 -718.97297668 1000.59747314 C-721.57606245 1001.24698233 -724.17896396 1001.89721603 -726.78178406 1002.54779053 C-732.72294894 1004.03195482 -738.66562027 1005.50871978 -744.61450195 1006.96166992 C-755.61808677 1009.65837441 -766.42655326 1012.58077487 -777.1875 1016.125 C-788.55207098 1019.79597603 -799.97595824 1022.98478177 -811.5625 1025.875 C-825.12658232 1029.25885536 -838.4259386 1033.14862628 -851.74609375 1037.39453125 C-856.36830206 1038.86286042 -860.97788295 1040.15986947 -865.6875 1041.3125 C-871.87597398 1042.88620129 -877.68784246 1045.12066824 -883.625 1047.4375 C-893.72819134 1051.36266292 -903.94545139 1054.47083935 -914.375 1057.375 C-927.36142532 1060.99526155 -940.17281744 1064.90954701 -952.92333984 1069.30175781 C-958.33258201 1071.15405414 -963.76157102 1072.94730649 -969.1875 1074.75 C-976.09953839 1077.05169288 -983.01036497 1079.35690462 -989.91796875 1081.671875 C-992.23690156 1082.44814854 -994.55591136 1083.22419212 -996.875 1084 C-998.58598877 1084.5727063 -998.58598877 1084.5727063 -1000.33154297 1085.15698242 C-1005.76306366 1086.96814711 -1011.20032525 1088.73924874 -1016.67675781 1090.40942383 C-1030.42612935 1094.61376412 -1043.88631545 1099.67291095 -1057.39219666 1104.59048462 C-1066.06664235 1107.74866524 -1074.74813299 1110.8871246 -1083.4342041 1114.01318359 C-1085.94229958 1114.91671368 -1088.44919329 1115.82352144 -1090.95605469 1116.73046875 C-1103.62313339 1121.29777548 -1103.62313339 1121.29777548 -1109.25 1122.9140625 C-1114.91595179 1124.54654296 -1120.30346297 1126.81893196 -1125.75 1129.0625 C-1133.48070301 1132.20801385 -1141.2170678 1135.20587399 -1149.125 1137.875 C-1156.07295146 1140.22570028 -1162.78676397 1142.92124956 -1169.5 1145.875 C-1175.69874794 1148.60039432 -1181.85383764 1151.08919103 -1188.3125 1153.125 C-1196.50721989 1155.7211337 -1204.46916173 1158.84945837 -1212.4375 1162.0625 C-1213.08608978 1162.32391785 -1213.73467957 1162.58533569 -1214.40292358 1162.85467529 C-1217.66545699 1164.17108562 -1220.92633762 1165.49152541 -1224.18603516 1166.81494141 C-1239.25271598 1172.93135571 -1254.36488104 1178.90514577 -1269.5625 1184.6875 C-1299.73366312 1196.13255039 -1299.73366312 1196.13255039 -1329.3347168 1208.95458984 C-1336.30569561 1212.14226279 -1343.41487467 1214.9227245 -1350.5625 1217.6875 C-1369.78799331 1225.1438983 -1388.49813629 1233.61726758 -1407.17431641 1242.34643555 C-1415.3284707 1246.15233992 -1423.52553129 1249.84893213 -1431.75 1253.5 C-1445.02432227 1259.40183415 -1458.15161058 1265.59934179 -1471.25537109 1271.86987305 C-1479.70019463 1275.9043951 -1488.18343033 1279.81977941 -1496.74745178 1283.59519958 C-1501.88236687 1285.86088137 -1506.95595148 1288.2259552 -1512 1290.6875 C-1519.39943504 1294.23081375 -1526.88363865 1297.54952679 -1534.4375 1300.75 C-1535.42443848 1301.17522949 -1536.41137695 1301.60045898 -1537.42822266 1302.03857422 C-1548.11073907 1306.50482326 -1557.70651984 1307.67455888 -1569.25 1307.6875 C-1570.39210938 1307.71199219 -1571.53421875 1307.73648437 -1572.7109375 1307.76171875 C-1583.71181347 1307.79922174 -1593.09392173 1304.7482981 -1602.6875 1299.5 C-1603.64366211 1298.97853394 -1603.64366211 1298.97853394 -1604.61914062 1298.4465332 C-1618.35998704 1290.69877178 -1625.026933 1276.856701 -1629.875 1262.3125 C-1630.16505124 1258.00493898 -1630.1529703 1253.69121236 -1630.1875 1249.375 C-1630.21650391 1248.20130859 -1630.24550781 1247.02761719 -1630.27539062 1245.81835938 C-1630.39325059 1229.41769128 -1623.58564643 1214.38833279 -1612.24609375 1202.58984375 C-1603.28093741 1193.97915818 -1593.91410441 1189.00865951 -1582.40625 1184.5859375 C-1569.94195989 1179.7770199 -1558.26940042 1174.01355161 -1546.49755859 1167.70507812 C-1540.95928626 1164.76425655 -1535.32956446 1162.00607791 -1529.70947266 1159.22607422 C-1527.90899657 1158.32943042 -1526.11650565 1157.41680926 -1524.32421875 1156.50390625 C-1511.02106275 1149.73025643 -1497.43388472 1143.55235603 -1483.875 1137.3125 C-1482.33465088 1136.6023877 -1482.33465088 1136.6023877 -1480.76318359 1135.87792969 C-1473.80814037 1132.6725318 -1466.84430483 1129.48676176 -1459.875 1126.3125 C-1459.27026855 1126.03688232 -1458.66553711 1125.76126465 -1458.04248047 1125.47729492 C-1429.58225396 1112.50821539 -1429.58225396 1112.50821539 -1416.46850586 1107.08178711 C-1410.80092349 1104.72995907 -1405.20982405 1102.22902406 -1399.625 1099.6875 C-1392.64236969 1096.5127245 -1385.62464508 1093.55660016 -1378.48046875 1090.76171875 C-1374.75626586 1089.26477479 -1371.0979358 1087.64405859 -1367.4375 1086 C-1358.65036439 1082.07833188 -1349.63285745 1078.79482523 -1340.61328125 1075.453125 C-1333.64638294 1072.86813236 -1326.75933449 1070.10876858 -1319.875 1067.3125 C-1318.37141545 1066.71013388 -1316.86747398 1066.10865829 -1315.36328125 1065.5078125 C-1311.24030164 1063.86071393 -1307.12153955 1062.20338662 -1303.00390625 1060.54296875 C-1290.55984372 1055.53339388 -1278.11671031 1050.55853873 -1265.5 1045.99609375 C-1262.2176576 1044.80899875 -1258.94973091 1043.58895667 -1255.6875 1042.34765625 C-1241.59336818 1036.98909768 -1227.39994488 1031.94980143 -1213.16650391 1026.97680664 C-1205.37882945 1024.2545704 -1197.60088407 1021.51921663 -1189.875 1018.625 C-1178.44866708 1014.35127199 -1166.88528604 1010.46319415 -1155.34619141 1006.50732422 C-1151.38653891 1005.14436604 -1147.43434543 1003.76102573 -1143.4831543 1002.3737793 C-1116.19273458 992.80629053 -1088.68784998 983.90805461 -1061.09295654 975.26443481 C-1056.1875653 973.72726874 -1051.28847821 972.1715684 -1046.39379883 970.60058594 C-1024.42095855 963.55075705 -1002.37853929 956.59101855 -980.14990234 950.3894043 C-974.77049814 948.88121657 -969.44145139 947.24542487 -964.11401367 945.56323242 C-950.44733943 941.25766807 -936.66921523 937.56234294 -922.80249023 933.96728516 C-913.6585812 931.59314983 -904.55655188 929.130508 -895.5 926.4375 C-888.19591607 924.26611489 -880.90247913 922.26056466 -873.49609375 920.46484375 C-867.73658404 919.05053021 -862.01279178 917.50020239 -856.28439331 915.96566772 C-854.31294645 915.43761958 -852.3412144 914.91065008 -850.36938477 914.3840332 C-842.97059171 912.40809326 -842.97059171 912.40809326 -835.57324219 910.42675781 C-832.61259682 909.63381159 -829.65030341 908.84733837 -826.6875 908.0625 C-825.86628662 907.84094238 -825.04507324 907.61938477 -824.19897461 907.39111328 C-818.49988027 905.88914759 -812.76712502 904.65413637 -806.99609375 903.46875 C-797.54319651 901.51851905 -788.21368006 899.17505443 -778.86865234 896.76724243 C-762.02887754 892.44172944 -745.15596109 888.56273386 -728.10375977 885.17651367 C-726.52357293 884.86260498 -724.94341333 884.54855921 -723.36328125 884.234375 C-722.58719009 884.08019608 -721.81109894 883.92601715 -721.01148987 883.76716614 C-715.25429412 882.61352027 -709.52098821 881.3684482 -703.79296875 880.078125 C-702.97031525 879.89291794 -702.14766174 879.70771088 -701.30007935 879.51689148 C-697.38726835 878.63315373 -693.47680176 877.74000667 -689.56835938 876.8371582 C-688.16408467 876.51764344 -686.75978891 876.19822117 -685.35546875 875.87890625 C-684.14785889 875.59990479 -682.94024902 875.32090332 -681.69604492 875.03344727 C-677.10455056 874.16713311 -672.52734216 873.70818424 -667.875 873.3125 C-667.87135437 872.64582809 -667.86770874 871.97915619 -667.86395264 871.2922821 C-667.82134818 864.199657 -667.75149445 857.10763332 -667.66748047 850.01538086 C-667.63763151 847.38668282 -667.61826526 844.75853614 -667.60400391 842.12963867 C-667.4622626 817.44302755 -664.52712299 793.78978985 -659 769.75 C-658.82659088 768.98610962 -658.65318176 768.22221924 -658.47451782 767.43518066 C-653.83794673 747.08043024 -646.91603575 729.13822098 -637.875 710.3125 C-637.32126709 709.15524414 -637.32126709 709.15524414 -636.75634766 707.97460938 C-629.69624561 693.3058506 -621.95191373 678.8368993 -612.875 665.3125 C-612.22402344 664.33667969 -611.57304688 663.36085938 -610.90234375 662.35546875 C-602.18905715 649.53064945 -592.92303745 637.15046582 -582.27734375 625.86328125 C-580.30241497 623.76632435 -578.41961596 621.63732563 -576.5625 619.4375 C-568.74358777 610.4287533 -560.03504077 601.94586731 -550.875 594.3125 C-549.97523437 593.53519531 -549.07546875 592.75789062 -548.1484375 591.95703125 C-541.38624355 586.18208267 -534.39046769 581.0767697 -526.875 576.3125 C-525.823125 575.62027344 -524.77125 574.92804687 -523.6875 574.21484375 C-508.20455896 564.25886604 -493.19436706 560.13519818 -474.875 562.3125 C-467.49653836 564.24355764 -461.26310442 567.99165745 -456.875 574.3125 C-455.86328125 576.3046875 -455.86328125 576.3046875 -455.1875 578.1875 C-454.95675781 578.80367187 -454.72601562 579.41984375 -454.48828125 580.0546875 C-447.05814391 607.40895109 -460.87369334 632.1266372 -473.36035156 655.46972656 C-482.65459171 672.91365504 -491.55950444 690.44933571 -499.61181641 708.50732422 C-500.99630192 711.58187748 -502.41687984 714.63838874 -503.83984375 717.6953125 C-516.77324438 745.68911402 -524.20367235 772.92121444 -528.875 803.3125 C-529.07996094 804.61058594 -529.28492188 805.90867187 -529.49609375 807.24609375 C-530.21925115 813.44166084 -530.10008776 819.70944025 -530.125 825.9375 C-530.145625 827.23429687 -530.16625 828.53109375 -530.1875 829.8671875 C-530.19523437 831.74664063 -530.19523437 831.74664063 -530.203125 833.6640625 C-530.2124707 834.79666504 -530.22181641 835.92926758 -530.23144531 837.09619141 C-529.82900363 840.72753847 -528.67885379 843.16141152 -526.875 846.3125 C-515.0463097 845.66903725 -503.3259429 844.43479592 -491.5625 843.0625 C-489.64462722 842.8405315 -487.72673956 842.61869143 -485.80883789 842.39697266 C-481.83649914 841.9370365 -477.86447691 841.47446078 -473.89257812 841.01074219 C-468.91767098 840.4312843 -463.94126937 839.86607388 -458.9641571 839.3059082 C-455.15643927 838.87603702 -451.34958011 838.43888078 -447.5428772 838.00012207 C-445.74321356 837.79406462 -443.94322859 837.59079173 -442.14291382 837.39050293 C-426.67998982 836.74576197 -426.67998982 836.74576197 -413.38793945 830.81591797 C-412.1957875 828.94331163 -411.37059103 827.12895312 -410.5625 825.0625 C-410.08780273 823.98633423 -410.08780273 823.98633423 -409.60351562 822.88842773 C-408.65527425 820.71058547 -407.76419531 818.51496837 -406.875 816.3125 C-406.36582031 815.15363281 -405.85664062 813.99476563 -405.33203125 812.80078125 C-387.41290117 770.6692073 -380.74572317 723.56132523 -375.875 678.3125 C-375.78870834 677.57147537 -375.70241669 676.83045074 -375.61351013 676.06697083 C-374.50636292 665.14088166 -374.71072234 654.16024575 -374.70703125 643.19140625 C-374.70380875 640.92390422 -374.70044397 638.65640238 -374.69694519 636.38890076 C-374.69097532 631.63906372 -374.68910275 626.88924481 -374.68969727 622.1394043 C-374.68977808 617.3268657 -374.68290525 612.51442317 -374.66918945 607.7019043 C-374.52154883 569.96041757 -374.52154883 569.96041757 -376.875 532.3125 C-377.02365882 530.64715333 -377.17126733 528.98171242 -377.31762695 527.31616211 C-377.64958488 523.63122312 -378.012381 519.95031575 -378.39154053 516.2699585 C-378.83175876 511.98965621 -379.25436048 507.70758433 -379.6796875 503.42578125 C-379.82031113 502.01492249 -379.82031113 502.01492249 -379.96377563 500.57556152 C-381.14821537 488.64457903 -382.25561726 476.70633702 -383.36898804 464.76855469 C-383.75274246 460.65546083 -384.13853042 456.54255913 -384.5246582 452.4296875 C-385.62567498 440.69746154 -386.72563445 428.96519125 -387.80077553 417.23056126 C-390.46080733 388.20607739 -393.38674727 359.25191548 -396.95321655 330.32391357 C-399.3293436 310.97848024 -401.17640839 291.63867878 -402.54541016 272.19604492 C-403.32250297 261.29705393 -404.37305106 250.48520751 -405.80938721 239.65132141 C-406.66221715 233.21538415 -407.33540868 226.78234135 -407.875 220.3125 C-410.73982919 221.69382402 -412.86688477 223.04038878 -415.16015625 225.25390625 C-416.07112061 226.12233154 -416.07112061 226.12233154 -417.00048828 227.00830078 C-417.63970215 227.62431152 -418.27891602 228.24032227 -418.9375 228.875 C-424.1724805 233.84715744 -429.50639089 238.54437886 -435.1484375 243.0546875 C-438.2464535 245.6200933 -441.18758399 248.31657769 -444.125 251.0625 C-450.62344446 257.13257166 -457.30296763 262.97085546 -464.05810547 268.75292969 C-465.78644058 270.23648312 -467.50543258 271.73017573 -469.22265625 273.2265625 C-495.06397462 295.61482836 -518.92419736 306.37068352 -553.875 304.3125 C-558.51196711 303.69990985 -562.66661048 302.36274105 -566.875 300.3125 C-567.9578125 299.7865625 -567.9578125 299.7865625 -569.0625 299.25 C-575.02251498 295.89749157 -579.98683647 291.03635552 -584.875 286.3125 C-585.46667969 285.74660156 -586.05835938 285.18070313 -586.66796875 284.59765625 C-597.71043424 272.98745474 -599.40044017 254.80977576 -599.29443359 239.51904297 C-599.086167 232.53337833 -597.82960802 226.68364591 -594.875 220.3125 C-594.36582031 219.17425781 -593.85664062 218.03601563 -593.33203125 216.86328125 C-583.32020718 195.67120512 -566.09329719 176.89096983 -547.37890625 162.953125 C-536.95802447 155.17715228 -526.91895982 146.78033348 -517.34375 137.98828125 C-511.94622061 133.03801904 -506.46523894 128.27179542 -500.76953125 123.66796875 C-495.40117483 119.29938721 -490.14189142 114.8024218 -484.875 110.3125 C-483.79605469 109.40564453 -483.79605469 109.40564453 -482.6953125 108.48046875 C-477.8252382 104.32777054 -473.3456711 99.83164922 -468.90991211 95.22290039 C-467.601215 93.8830184 -466.24178597 92.59307331 -464.875 91.3125 C-464.215 91.3125 -463.555 91.3125 -462.875 91.3125 C-462.875 90.6525 -462.875 89.9925 -462.875 89.3125 C-461.39759827 87.85386658 -461.39759827 87.85386658 -459.35961914 86.16381836 C-455.07928139 82.52177917 -451.08746347 78.66996703 -447.12109375 74.69140625 C-446.41654556 73.98781479 -445.71199738 73.28422333 -444.98609924 72.55931091 C-443.50846633 71.08235352 -442.03207543 69.60415258 -440.55688477 68.12475586 C-438.31833519 65.88084915 -436.07449527 63.64233296 -433.83007812 61.40429688 C-432.38509596 59.95865382 -430.94042408 58.51270055 -429.49609375 57.06640625 C-428.50517982 56.07852867 -428.50517982 56.07852867 -427.49424744 55.07069397 C-423.64899873 51.2063373 -419.98129095 47.23575083 -416.42289734 43.1053772 C-414.08452521 40.39691976 -411.67041369 37.76001432 -409.25 35.125 C-408.79882812 34.63064453 -408.34765625 34.13628906 -407.8828125 33.62695312 C-394.75170035 19.30724893 -381.07210291 9.20259455 -361.16015625 7.921875 C-342.51521691 7.26734222 -323.03328593 10.04216144 -308.625 22.6875 C-307.02952772 24.21660064 -305.44559109 25.757854 -303.875 27.3125 C-303.16472656 27.97378906 -302.45445313 28.63507813 -301.72265625 29.31640625 C-287.39432622 42.92969486 -281.99617271 57.66083477 -280.98498535 76.9704895 C-280.87104948 79.13764205 -280.74650218 81.30399876 -280.62011719 83.47045898 C-280.23333833 90.19528487 -279.88277621 96.92060055 -279.60263062 103.65074158 C-278.13668986 138.82329319 -274.34716566 173.91232191 -269.40356445 208.76074219 C-268.32437502 216.50659857 -267.43120678 224.25779811 -266.61328125 232.03515625 C-262.70336336 269.07937363 -257.54932421 305.82411713 -251.31640625 342.55078125 C-249.50589286 353.25348708 -248.0163253 364.00245645 -246.5 374.75 C-246.19479773 376.90164221 -245.88937526 379.0532532 -245.58374023 381.20483398 C-244.97169112 385.51500058 -244.36066522 389.82531017 -243.75048828 394.13574219 C-242.59608407 402.28655 -241.43101208 410.43582672 -240.26507568 418.58499146 C-239.75041232 422.18288827 -239.23654868 425.78089926 -238.72265625 429.37890625 C-238.55773682 430.53334229 -238.39281738 431.68777832 -238.22290039 432.87719727 C-238.10809326 433.68084717 -237.99328613 434.48449707 -237.875 435.3125 C-237.81030518 434.08772949 -237.74561035 432.86295898 -237.67895508 431.60107422 C-235.37711266 388.85737264 -229.99367935 347.335769 -221.875 305.3125 C-221.72846985 304.55306091 -221.5819397 303.79362183 -221.43096924 303.01116943 C-211.39022028 251.37199627 -191.87233882 186.68860079 -150.70703125 151.45703125 C-148.26056321 148.59325523 -147.69692908 146.02374856 -146.8125 142.375 C-146.64387451 141.70678223 -146.47524902 141.03856445 -146.30151367 140.35009766 C-145.54237087 137.30267638 -144.86507185 134.26073178 -144.2734375 131.17578125 C-142.31227692 121.17386228 -138.265263 112.21296623 -134.07910156 102.97607422 C-132.94736775 100.47258356 -131.84319842 97.95851665 -130.7421875 95.44140625 C-121.78788958 75.37006698 -108.83172117 54.57545068 -92.875 39.3125 C-92.24464844 38.69890625 -91.61429688 38.0853125 -90.96484375 37.453125 C-77.26153527 24.57248513 -61.21410922 13.28447507 -43.625 6.5625 C-42.89933838 6.28035645 -42.17367676 5.99821289 -41.42602539 5.70751953 C-27.86732578 0.79390436 -14.27852927 -0.18197257 0 0 Z M0.125 125.3125 C-22.39924666 158.37295044 -32.03383166 199.04060858 -36.875 238.3125 C-37.00390625 239.30894531 -37.1328125 240.30539062 -37.265625 241.33203125 C-43.39987596 299.04241861 -27.77515894 364.86420992 0.4609375 414.98046875 C3.95074941 421.96828463 4.46445945 428.21312553 4.4375 435.875 C4.45361328 436.79474609 4.46972656 437.71449219 4.48632812 438.66210938 C4.49016924 444.00509595 4.04781477 447.66782901 1.125 452.3125 C0.609375 453.158125 0.09375 454.00375 -0.4375 454.875 C-8.8355026 463.2730026 -19.18122206 463.60711596 -30.30957031 463.6315918 C-38.20084804 463.53149785 -44.5783144 462.47092248 -51.875 459.3125 C-52.71546875 458.97347656 -53.5559375 458.63445312 -54.421875 458.28515625 C-64.27986268 453.87417769 -73.36743907 446.44485808 -80.60546875 438.4921875 C-81.83034687 437.08559653 -81.83034687 437.08559653 -83.875 437.3125 C-83.875 436.6525 -83.875 435.9925 -83.875 435.3125 C-84.535 435.3125 -85.195 435.3125 -85.875 435.3125 C-86.21917969 434.48878906 -86.21917969 434.48878906 -86.5703125 433.6484375 C-88.24704976 430.64637497 -90.39092631 428.43657806 -92.75 425.9375 C-95.46252155 423.06303687 -97.9808618 420.27148135 -100.1328125 416.9609375 C-100.70773437 416.08695313 -101.28265625 415.21296875 -101.875 414.3125 C-102.205 414.3125 -102.535 414.3125 -102.875 414.3125 C-103.37815757 455.98168749 -101.13125581 495.09787442 -93.3092041 536.02099609 C-92.76857377 538.87416239 -92.24804998 541.73077799 -91.72808838 544.58776855 C-88.56908577 561.87279651 -84.33968537 578.6131683 -78.875 595.3125 C-78.36694824 596.87943604 -78.36694824 596.87943604 -77.84863281 598.47802734 C-70.78890519 619.94885138 -62.19488172 642.55359157 -47.875 660.3125 C-47.26140625 661.10398437 -46.6478125 661.89546875 -46.015625 662.7109375 C-42.43685393 667.09730735 -39.12975735 670.11505602 -33.875 672.3125 C-27.83328226 672.58102079 -22.49249705 668.9038866 -17.875 665.3125 C10.67685589 636.51626303 27.17462345 594.87885114 40.125 557.3125 C40.34623535 556.67177551 40.5674707 556.03105103 40.79541016 555.37091064 C45.86393273 540.67394104 50.8264695 525.98595468 54.49462891 510.86621094 C55.21250887 507.95799078 55.97046345 505.06155506 56.73046875 502.1640625 C67.00483475 462.6390882 74.43317838 421.99136841 78.125 381.3125 C78.22264648 380.2611084 78.32029297 379.2097168 78.42089844 378.12646484 C84.21527615 314.02738071 80.29396522 250.57825508 64.4375 188.1875 C64.25136139 187.45297607 64.06522278 186.71845215 63.8734436 185.96166992 C61.79812601 177.84354618 59.46361561 170.0163492 56.125 162.3125 C55.51410778 160.80191834 54.90602119 159.29019895 54.30078125 157.77734375 C44.08852789 130.63407745 44.08852789 130.63407745 23.125 112.3125 C12.23525837 111.10252871 6.35825967 117.05197457 0.125 125.3125 Z " fill="#FFFFFF" transform="translate(2145.875,255.6875)"/>
  <path d="M0 0 C1.2245993 -0.00305145 1.2245993 -0.00305145 2.47393799 -0.00616455 C13.79248104 0.02947408 23.89632345 1.57211203 34.75 4.8125 C35.42061966 5.0108847 36.09123932 5.20926941 36.78218079 5.41366577 C64.60353764 13.68723026 87.76041998 33.3689633 101.9296875 58.6171875 C120.29244869 92.82433956 121.47171554 132.88754939 120.75 170.8125 C120.71447021 172.68760254 120.71447021 172.68760254 120.67822266 174.60058594 C120.10235552 197.15002277 117.45533074 219.4943203 114.8125 241.875 C114.7246524 242.62066475 114.63680481 243.3663295 114.54629517 244.13459015 C112.01915809 265.55253681 108.9925478 286.79796529 105.25311279 308.03884888 C103.61680167 317.41260184 102.21989568 326.8155418 100.85714722 336.23233032 C98.46466232 352.72396484 95.94089517 369.18969293 93.1875 385.625 C93.04211792 386.49289154 92.89673584 387.36078308 92.74694824 388.25497437 C91.03524356 398.44304161 89.25868583 408.61825218 87.43261719 418.78637695 C84.91578743 432.8032745 82.63815839 446.83462329 80.57284546 460.92538452 C79.04060503 471.37777281 77.44276866 481.81499837 75.72265625 492.23828125 C70.76822697 522.31141712 66.34942354 552.41800526 62.28808594 582.62280273 C62.1902116 583.35058394 62.09233727 584.07836515 61.99149704 584.82820034 C61.59902882 587.74771753 61.20664118 590.66724362 60.81615448 593.5870266 C59.75882031 601.49202234 58.6779698 609.39212264 57.51757812 617.28271484 C54.83002347 635.58250905 52.50857769 653.89675742 50.41742802 672.27428627 C50.31206447 673.20003645 50.20670092 674.12578663 50.09814453 675.07958984 C49.99121245 676.01958517 49.88428038 676.9595805 49.77410793 677.92806053 C48.56122762 688.542839 47.26687246 699.14756182 45.97477341 709.7529335 C45.13123634 716.69055983 44.29720694 723.62933657 43.4622097 730.56799507 C42.75806194 736.41402001 42.04951553 742.25944537 41.33129883 748.10375977 C37.13519444 782.29042795 33.93539946 816.43810704 31.75 850.8125 C31.66212156 852.18793661 31.66212156 852.18793661 31.5724678 853.59115982 C30.88236978 864.44043851 30.2595477 875.29253114 29.67938232 886.14819336 C29.52025022 889.09483799 29.35468444 892.04110951 29.18939972 894.98741436 C28.6701335 904.26063403 28.19648432 913.53550859 27.75 922.8125 C27.66069214 924.59692001 27.66069214 924.59692001 27.56958008 926.41738892 C26.80904186 942.12930356 26.72120178 957.78663171 26.8684864 973.51215744 C26.89847387 976.73437627 26.92497364 979.95660685 26.95054626 983.17886353 C26.9682621 985.35687314 26.98604921 987.53488217 27.00390625 989.71289062 C27.01717374 991.34623635 27.01717374 991.34623635 27.03070927 993.01257896 C27.07838029 998.58530558 27.13907395 1004.15743321 27.22314453 1009.72973633 C27.30502096 1015.22384802 27.35135803 1020.71731195 27.37520218 1026.21196938 C27.39041553 1028.27017885 27.4180533 1030.32834297 27.45954514 1032.38619041 C27.86443723 1053.01582011 22.87965436 1071.3957359 8.3125 1086.6875 C-2.97878202 1097.28015755 -16.39822401 1100.48743115 -31.6574707 1100.35522461 C-50.07519872 1099.59073021 -63.5068776 1088.07935556 -75.6875 1075.3125 C-81.73978802 1068.415458 -86.52785899 1060.65307029 -91.25 1052.8125 C-91.61480469 1052.20841309 -91.97960937 1051.60432617 -92.35546875 1050.98193359 C-98.87436929 1039.98284997 -103.40147023 1028.07754665 -107.96386719 1016.16821289 C-108.87370999 1013.79429692 -109.79620386 1011.42799818 -110.73144531 1009.06420898 C-114.49302407 999.44776421 -117.32220999 989.78012185 -119.75 979.75 C-119.9397641 978.9755957 -120.1295282 978.20119141 -120.32504272 977.40332031 C-128.67206792 943.27256602 -133.05081834 909.32639531 -135.9375 874.375 C-135.99843842 873.64069763 -136.05937683 872.90639526 -136.12216187 872.14984131 C-137.76630362 852.07564269 -138.40535214 832.02369088 -138.56640625 811.88671875 C-138.587048 809.67470476 -138.60804592 807.46269407 -138.62937927 805.25068665 C-138.68385632 799.50526651 -138.73358467 793.75981536 -138.78222656 788.01434326 C-138.83299448 782.12086313 -138.88838809 776.22742653 -138.94335938 770.33398438 C-139.05002732 758.82686033 -139.1516643 747.31969806 -139.25 735.8125 C-140.00801407 735.98487686 -140.76602814 736.15725372 -141.54701233 736.33485413 C-148.85122757 737.99583115 -156.15549571 739.65657532 -163.45981693 741.31708622 C-167.9370454 742.33491591 -172.41423351 743.35292281 -176.89138222 744.37110329 C-179.06878291 744.86621892 -181.24622648 745.36114566 -183.42367554 745.85604858 C-186.33988415 746.51888708 -189.25589415 747.18259056 -192.17178345 747.84683228 C-198.69695825 749.33213594 -205.22326699 750.81111227 -211.75728321 752.25710011 C-214.55024667 752.87520309 -217.3424337 753.4967786 -220.13464165 754.11828423 C-222.04294102 754.54127071 -223.95248503 754.95863004 -225.86207581 755.37574768 C-232.80894468 756.92264443 -239.5655841 758.7758971 -246.34971619 760.92469788 C-249.98733629 762.03820506 -253.5854341 762.84983781 -257.31640625 763.59375 C-258.72330987 763.8814978 -260.13021084 764.1692586 -261.53710938 764.45703125 C-263.67757681 764.88664332 -265.81853666 765.31370116 -267.9597168 765.73974609 C-271.45194626 766.43859042 -274.93417557 767.16186439 -278.40673828 767.953125 C-280.8125501 768.49107809 -283.23322788 768.96983894 -285.66748047 769.359375 C-290.86473636 770.48222382 -293.4225308 771.61972098 -296.5090332 776.06884766 C-298.35389617 779.49258606 -299.87928332 783.03176897 -301.34887695 786.63000488 C-302.48104316 789.37208014 -303.72961373 792.05081742 -304.9859314 794.7376709 C-306.20716286 797.35916814 -307.39164828 799.99662416 -308.57720947 802.63439941 C-310.19352221 806.23050551 -311.82020882 809.82192281 -313.4453125 813.4140625 C-313.76978363 814.13203003 -314.09425476 814.84999756 -314.42855835 815.58972168 C-317.37248859 822.09842299 -320.36858125 828.58244538 -323.375 835.0625 C-329.22560333 847.6952191 -334.92006642 860.39641684 -340.59570312 873.10839844 C-344.96699546 882.89820452 -349.35238416 892.68171182 -353.74511719 902.46191406 C-354.717821 904.62761605 -355.68987162 906.79361159 -356.66113281 908.95996094 C-360.98912507 918.60457312 -365.36155849 928.20284345 -370.1418457 937.63256836 C-376.88957157 950.95810728 -383.3826221 964.44230831 -389.26171875 978.17529297 C-391.33420661 982.95472823 -393.62969674 987.61012995 -395.97265625 992.26171875 C-400.29161391 1000.83743242 -404.41238437 1009.4996378 -408.5 1018.1875 C-409.24900961 1019.77470314 -409.99811592 1021.36186064 -410.74731445 1022.94897461 C-414.55367572 1031.02207078 -418.31366818 1039.11315507 -422.00878906 1047.23779297 C-428.59348296 1061.69666457 -435.79260306 1075.78610164 -443.25 1089.8125 C-444.0553418 1091.33810547 -444.0553418 1091.33810547 -444.87695312 1092.89453125 C-469.26789706 1139.01668793 -469.26789706 1139.01668793 -488.1875 1146.5 C-489.65509766 1147.09361328 -489.65509766 1147.09361328 -491.15234375 1147.69921875 C-498.39762894 1150.30313587 -504.48020293 1151.12473715 -512.125 1151.0625 C-513.06730469 1151.07023437 -514.00960937 1151.07796875 -514.98046875 1151.0859375 C-528.64152068 1151.04814759 -537.84126001 1147.01034801 -548 1137.75 C-559.85857054 1125.3165975 -561.94937334 1109.94248167 -561.65136719 1093.54101562 C-561.16348644 1082.13447162 -558.47259281 1071.13953216 -555.875 1060.0625 C-555.32403467 1057.63517311 -554.77416213 1055.20759793 -554.2253418 1052.77978516 C-549.84782947 1033.61013612 -544.91280973 1014.64037928 -539.25 995.8125 C-538.899375 994.63494141 -538.54875 993.45738281 -538.1875 992.24414062 C-523.44573332 942.96531829 -507.02383488 893.98143196 -489.24829102 845.71630859 C-486.40817134 838.00094792 -483.60678655 830.27446884 -480.91186523 822.50708008 C-480.11394644 820.21340682 -479.3374206 817.9873412 -478.25 815.8125 C-478.85320068 815.94712646 -479.45640137 816.08175293 -480.07788086 816.22045898 C-487.6950362 817.9193505 -495.31383133 819.61081448 -502.93334961 821.29907227 C-504.52990368 821.65290862 -506.12641827 822.00692313 -507.72290039 822.36108398 C-513.06418087 823.54595086 -518.40612304 824.72777049 -523.74880981 825.90628052 C-525.51843648 826.2970514 -527.28787163 826.68869079 -529.05709839 827.08126831 C-549.87237668 831.69830137 -569.6147086 834.99970842 -590.99267578 834.99780273 C-593.74397121 834.9999952 -596.49486857 835.01822505 -599.24609375 835.03710938 C-608.10183984 835.06570457 -616.60975506 835.01544963 -625.25 832.8125 C-626.83748047 832.43931641 -626.83748047 832.43931641 -628.45703125 832.05859375 C-647.04567725 826.28970361 -661.67243656 812.49856687 -671.25 795.8125 C-676.24483225 784.43922547 -676.45181672 773.30105274 -676.5 761.0625 C-676.520625 759.76828125 -676.54125 758.4740625 -676.5625 757.140625 C-676.65080938 735.23989918 -668.07491881 718.58319849 -653.0625 703.125 C-627.62062986 677.89873893 -586.71239827 668.15407644 -553.0625 659.3125 C-551.24810375 658.83177966 -549.43381434 658.35065593 -547.61962891 657.86914062 C-544.08306645 656.93155476 -540.54563162 655.99738458 -537.00732422 655.06640625 C-533.00346701 654.01255585 -529.00306232 652.94654421 -525.00390625 651.875 C-523.04438423 651.35374021 -521.08476105 650.83286041 -519.125 650.3125 C-517.90647339 649.98475586 -517.90647339 649.98475586 -516.66333008 649.65039062 C-509.98536214 647.89743268 -503.23553844 646.57720135 -496.46191406 645.25030518 C-493.25431714 644.61542403 -490.0513205 643.95857534 -486.84802246 643.30239868 C-482.25413713 642.36191028 -477.65827298 641.43121177 -473.0625 640.5 C-472.09086914 640.30241089 -471.11923828 640.10482178 -470.11816406 639.90124512 C-459.59980955 637.76841391 -449.08637868 635.71741834 -438.48046875 634.06640625 C-437.64594681 633.93525925 -436.81142487 633.80411224 -435.95161438 633.66899109 C-432.0401603 633.05865052 -428.12726714 632.47429846 -424.20629883 631.9284668 C-422.81453185 631.71849244 -421.42284392 631.50799326 -420.03125 631.296875 C-418.83564453 631.12897461 -417.64003906 630.96107422 -416.40820312 630.78808594 C-411.85479794 629.38151458 -409.50857758 627.09533259 -407.20635986 622.91952515 C-406.13519438 620.65531509 -405.16298988 618.36757065 -404.2109375 616.05078125 C-403.84819733 615.19589615 -403.48545715 614.34101105 -403.11172485 613.46022034 C-401.9379578 610.68651287 -400.78140343 607.90598567 -399.625 605.125 C-398.81622396 603.20476886 -398.00632195 601.28501158 -397.1953125 599.36572266 C-395.59479425 595.57314309 -394.00075788 591.77795549 -392.41308594 587.97998047 C-390.6150532 583.67973614 -388.80154169 579.3865327 -386.9765625 575.09765625 C-383.55449671 567.05544542 -380.1491011 559.00711744 -376.8203125 550.92578125 C-370.71784872 536.12520249 -364.2386734 521.51800599 -357.65234375 506.92871094 C-355.93299844 503.10807661 -354.23716171 499.27790114 -352.5625 495.4375 C-352.29791992 494.83139893 -352.03333984 494.22529785 -351.76074219 493.60083008 C-350.22015209 490.06278203 -348.69404954 486.5186623 -347.171875 482.97265625 C-341.45731925 469.69700463 -335.512238 456.53553536 -329.47998047 443.40209961 C-328.78090627 441.88005394 -328.08185031 440.35799989 -327.3828125 438.8359375 C-326.861996 437.70210381 -326.861996 437.70210381 -326.33065796 436.54536438 C-324.04990772 431.57388594 -321.79385021 426.5918954 -319.5546875 421.6015625 C-306.98849051 393.62794207 -293.76476056 365.95179701 -279.34082031 338.88427734 C-277.65286287 335.67836712 -276.04289316 332.43533709 -274.4375 329.1875 C-269.08174417 318.37421625 -263.47920649 307.68645029 -257.90283203 296.98583984 C-256.48266296 294.25919914 -255.06683334 291.53036993 -253.65234375 288.80078125 C-244.31932969 270.85800401 -234.42081249 253.19521197 -224.31787109 235.67578125 C-223.02164652 233.41405607 -221.73944797 231.14458234 -220.45703125 228.875 C-215.41801019 219.97504738 -210.30528879 211.16215509 -204.81103516 202.53491211 C-202.49659887 198.87935333 -200.32633089 195.18754969 -198.26855469 191.38208008 C-193.06714091 181.77093464 -186.99564833 172.77884619 -180.89648438 163.7253418 C-176.9146053 157.81349377 -172.96975487 151.89430753 -169.25 145.8125 C-161.94580552 133.91603233 -154.04323385 122.39181463 -146.25 110.8125 C-145.60466309 109.85150391 -144.95932617 108.89050781 -144.29443359 107.90039062 C-138.25763753 98.924008 -132.18961104 90.12243278 -125.25 81.8125 C-123.65330116 79.85643776 -122.06226782 77.89584826 -120.47167969 75.93481445 C-119.32779305 74.52474546 -118.18261865 73.11572014 -117.03613281 71.70776367 C-113.99521411 67.97303023 -110.98244448 64.2192396 -108 60.4375 C-103.94700176 55.37335875 -99.68597725 50.54420907 -95.25 45.8125 C-94.56043213 45.07193359 -94.56043213 45.07193359 -93.85693359 44.31640625 C-85.14108822 35.03031128 -75.67585008 27.11891672 -65.25 19.8125 C-64.60144043 19.35214355 -63.95288086 18.89178711 -63.28466797 18.41748047 C-44.08966755 5.09999995 -23.01608769 -0.03240851 0 0 Z M-104.25 367.8125 C-104.55796509 368.44095825 -104.86593018 369.0694165 -105.18322754 369.71691895 C-108.1233286 375.71643501 -111.0640553 381.71564398 -114.00543976 387.71453094 C-115.51665227 390.79666739 -117.02764455 393.87891135 -118.53808594 396.96142578 C-130.06396557 420.48286123 -130.06396557 420.48286123 -135.76879883 431.84155273 C-138.17060939 436.63138921 -140.4850561 441.45676851 -142.75 446.3125 C-145.45081532 452.05790244 -148.19970909 457.77106676 -151.0625 463.4375 C-155.10295121 471.43594423 -158.96039532 479.5197174 -162.82299805 487.60522461 C-165.61324787 493.43585415 -168.44565695 499.2381517 -171.375 505 C-174.51610191 511.19058835 -177.40064702 517.48287357 -180.25 523.8125 C-183.3439682 530.68345985 -186.51404443 537.48665039 -189.9296875 544.203125 C-193.47197395 551.19007583 -196.8550397 558.25324247 -200.25 565.3125 C-204.07123223 573.25653456 -207.9029928 581.19234725 -211.875 589.0625 C-215.7961161 596.8306631 -215.7961161 596.8306631 -219.25 604.8125 C-218.92 605.4725 -218.59 606.1325 -218.25 606.8125 C-217.62439682 606.72620331 -216.99879364 606.63990662 -216.35423279 606.55099487 C-203.20944448 604.7816425 -190.17465928 603.56303737 -176.91015625 603.2578125 C-175.63022797 603.22766052 -174.35029968 603.19750854 -173.03158569 603.16644287 C-167.77317527 603.05242264 -162.51473517 602.95352885 -157.25561523 602.87939453 C-153.34810982 602.82281389 -149.44192215 602.72768859 -145.53515625 602.6328125 C-144.34165054 602.62428253 -143.14814484 602.61575256 -141.91847229 602.60696411 C-140.8213945 602.57698334 -139.72431671 602.54700256 -138.59399414 602.51611328 C-137.14942589 602.49304611 -137.14942589 602.49304611 -135.67567444 602.46951294 C-133.04117111 602.0165778 -133.04117111 602.0165778 -131.46832275 599.5262146 C-130.38791225 597.1196883 -129.75348109 595.28084396 -129.4128418 592.68945312 C-129.30365921 591.88713257 -129.19447662 591.08481201 -129.08198547 590.25817871 C-128.97629745 589.37891724 -128.87060944 588.49965576 -128.76171875 587.59375 C-128.57883553 586.16415955 -128.57883553 586.16415955 -128.39225769 584.70568848 C-126.80028279 571.81867737 -125.67373644 558.87829857 -124.48916626 545.94888306 C-122.03662504 519.22675383 -119.34473871 492.53535422 -116.31676865 465.8722229 C-116.06598325 463.65578493 -115.81816607 461.43903418 -115.57119751 459.22216797 C-113.8917571 444.18199519 -111.97201862 429.26311975 -109.10913086 414.39575195 C-108.00297288 408.62758529 -107.25573896 402.83771165 -106.625 397 C-106.44843872 395.45324585 -106.44843872 395.45324585 -106.26831055 393.87524414 C-106.03426409 391.82275084 -105.80294525 389.76994417 -105.57470703 387.71679688 C-105.09119382 383.39208021 -104.57590647 379.07124849 -104.0625 374.75 C-103.79082081 372.43759812 -103.52038115 370.12505411 -103.25 367.8125 C-103.58 367.8125 -103.91 367.8125 -104.25 367.8125 Z " fill="#FFFFFF" transform="translate(759.25,162.1875)"/>
  <path d="M0 0 C0.87527344 0.65355469 1.75054688 1.30710937 2.65234375 1.98046875 C27.17176521 20.86007938 41.43829674 50.51268252 48.25 80.0625 C48.40114258 80.70880371 48.55228516 81.35510742 48.70800781 82.02099609 C51.84488155 96.62551546 52.32314526 111.27260835 52.26074219 126.15454102 C52.25007478 129.16638605 52.26067448 132.17762666 52.2734375 135.18945312 C52.28784141 153.4178364 50.99787897 171.47273892 47.8125 189.4375 C47.69694763 190.09534485 47.58139526 190.7531897 47.46234131 191.43096924 C44.62497414 207.34917341 40.84974074 223.07704965 37.1165123 238.80382156 C36.63416602 240.83637539 36.15354277 242.8693314 35.67300415 244.90231323 C31.78571178 261.31201017 27.50604594 277.57087327 22.79492188 293.76464844 C21.2955946 298.9307495 19.88145187 304.1103379 18.55859375 309.32421875 C18.29625191 310.35735451 18.29625191 310.35735451 18.02861023 311.41136169 C17.67933157 312.78981166 17.33038841 314.16834668 16.98178101 315.54696655 C11.64371024 336.54038519 5.25186038 357.19363062 -1.1739502 377.87451172 C-4.08644055 387.25398137 -6.93688924 396.65154298 -9.76953125 406.0553894 C-11.0888873 410.43474363 -12.41178548 414.81302768 -13.734375 419.19140625 C-13.9974646 420.06253555 -14.2605542 420.93366486 -14.53161621 421.83119202 C-17.78385736 432.59823983 -21.04389463 443.36290861 -24.3125 454.125 C-24.61078705 455.1078598 -24.9090741 456.0907196 -25.21640015 457.10336304 C-28.50606294 467.9358001 -31.84955979 478.74174418 -35.375 489.5 C-38.55229975 499.21350642 -41.15711927 509.03492285 -43.71801758 518.92651367 C-46.50052364 529.49896315 -49.72519518 539.90326286 -53.0625 550.3125 C-56.71444442 561.70820293 -60.26104228 573.09893621 -63.41601562 584.64477539 C-65.85123557 593.54762701 -68.44562015 602.39925744 -71.0625 611.25 C-71.92099695 614.15612493 -72.77907675 617.06237265 -73.63671875 619.96875 C-73.84213287 620.66484375 -74.047547 621.3609375 -74.25918579 622.078125 C-76.65265683 630.19925679 -78.98095613 638.33872865 -81.28515625 646.4855957 C-81.8203373 648.36805118 -82.3601678 650.2491859 -82.90234375 652.12963867 C-84.68100136 658.30829413 -86.41787084 664.49550159 -88.078125 670.70703125 C-92.60729811 687.6325216 -97.4474718 704.37449769 -103 721 C-102.39792725 720.77562256 -101.79585449 720.55124512 -101.17553711 720.32006836 C-70.2137408 708.85960812 -38.61520747 697.86702598 -6.39257812 690.55761719 C-2.40465281 689.62818643 1.5452776 688.56036897 5.5 687.5 C21.46051256 683.27261182 37.42327623 679.223346 53.61206055 675.96044922 C60.22280304 674.61619617 66.77662819 673.10836567 73.33105469 671.51293945 C115.070456 661.41138219 157.76575163 656.031407 200.50341797 652.30859375 C203.82843776 652.01514137 207.15023453 651.69631148 210.47265625 651.375 C302.74654916 642.94348891 302.74654916 642.94348891 332.73046875 667.875 C337.2914455 672.14551868 341.72615252 676.91967253 342.16113281 683.40087891 C342.20682744 686.47570213 342.23530401 689.54986511 342.25 692.625 C342.2809375 694.20861328 342.2809375 694.20861328 342.3125 695.82421875 C342.36489361 706.39462952 340.18883278 713.62852657 333.27734375 721.71484375 C327.7073564 727.30393912 321.0568485 730.10793824 313.75 732.828125 C312.70749084 733.21695862 312.70749084 733.21695862 311.6439209 733.61364746 C303.68754855 736.53900007 295.6120425 739.04684317 287.5 741.5 C286.71664276 741.73877869 285.93328552 741.97755737 285.12619019 742.22357178 C274.72493927 745.39002395 264.30838226 748.28855374 253.7265625 750.79736328 C246.03581938 752.65279462 238.53431747 754.9678118 231 757.375 C220.93061917 760.58277888 210.83310937 763.38976809 200.5625 765.875 C172.12585123 772.78432115 144.21582288 781.32847213 116.53320312 790.79248047 C111.58999802 792.48188708 106.64085125 794.1530992 101.6875 795.8125 C100.86733398 796.08795654 100.04716797 796.36341309 99.20214844 796.6472168 C93.39927239 798.57897293 87.5555655 800.34040492 81.6875 802.0625 C74.41399922 804.20358365 67.33095191 806.63204654 60.26171875 809.3671875 C55.18482113 811.33078989 50.05901977 813.15675717 44.9375 815 C38.88719272 817.18356955 32.88152863 819.41683863 26.9375 821.875 C19.74834646 824.81096778 12.41737699 827.26317443 5.0625 829.75 C-12.06620479 835.55774017 -28.62379317 842.52891062 -45.09814453 849.97680664 C-51.17950206 852.69989293 -57.35897732 855.13338907 -63.5625 857.5625 C-73.88525032 861.62896463 -84.02282111 866.04470131 -94.125 870.625 C-94.80756866 870.93261261 -95.49013733 871.24022522 -96.19338989 871.55715942 C-104.16070079 875.15483086 -111.95658962 878.96283291 -119.64476013 883.12486267 C-125.24584019 886.154873 -130.93343484 888.96170538 -136.6875 891.6875 C-138.17527954 892.39447021 -138.17527954 892.39447021 -139.69311523 893.11572266 C-146.38635331 896.27835877 -153.08729717 899.34354706 -160 902 C-161.63195312 902.65935547 -161.63195312 902.65935547 -163.296875 903.33203125 C-183.11634457 910.97353785 -211.08805365 913.4388725 -231 905 C-232.04607422 904.58137695 -232.04607422 904.58137695 -233.11328125 904.15429688 C-254.10068913 895.73430615 -271.2676673 883.94512446 -280.46508789 862.54370117 C-288.83504903 842.08350689 -290.75765962 820.27376104 -282.89169312 799.44592285 C-276.49643587 782.22399541 -274.46664564 765.13149635 -272.62829208 746.96125031 C-272.19658662 742.76634931 -271.72938148 738.57543524 -271.26293945 734.38427734 C-271.0746495 732.69015634 -270.88637128 730.99603402 -270.69810486 729.3019104 C-270.60510542 728.46575825 -270.51210598 727.62960609 -270.41628838 726.768116 C-270.13794845 724.25329793 -269.86339748 721.73809228 -269.58985901 719.2227478 C-268.03669476 704.98756912 -266.19378982 690.80385119 -264.1875 676.625 C-264.04098999 675.58477692 -263.89447998 674.54455383 -263.74353027 673.47280884 C-263.18861818 669.53337585 -262.63314745 665.59402843 -262.07333374 661.6552887 C-261.34033223 656.48419437 -260.64381818 651.31138281 -259.99609375 646.12890625 C-257.81830794 628.70782363 -254.95248675 611.43184247 -252.02154541 594.1239624 C-249.49622343 579.20894719 -247.1066331 564.29224939 -245 549.3125 C-242.34669253 530.49098526 -239.06182002 511.7952065 -235.69415283 493.08981323 C-235.42402374 491.58935959 -235.42402374 491.58935959 -235.1484375 490.05859375 C-234.8804837 488.57070847 -234.8804837 488.57070847 -234.6071167 487.05276489 C-232.21870453 473.72783209 -230.01317168 460.37112267 -227.875 447.00390625 C-227.72546875 446.07513672 -227.5759375 445.14636719 -227.421875 444.18945312 C-227.13634331 442.41148962 -226.85521829 440.63281376 -226.578125 438.85351562 C-225.79848191 434.05803852 -224.86407688 429.34687695 -223.69697571 424.62953186 C-220.68449945 412.42697599 -218.64277231 400.06132945 -216.512146 387.68014526 C-212.35889564 363.56983935 -207.79037384 339.59174013 -202.62702942 315.67553711 C-201.29467372 309.46933301 -200.0443078 303.24947055 -198.828125 297.01953125 C-198.64737427 296.09443253 -198.46662354 295.1693338 -198.28039551 294.21620178 C-198.09891968 293.2872258 -197.91744385 292.35824982 -197.73046875 291.40112305 C-193.31451225 268.80082579 -188.23997248 246.39767945 -182.89352417 224.00079346 C-180.93267299 215.76770968 -179.08123202 207.51268333 -177.25 199.25 C-174.66615485 187.66380691 -171.7846662 176.17681709 -168.7578125 164.69921875 C-164.52439031 148.64295997 -160.56986654 132.51408089 -156.76635742 116.35107422 C-155.3100167 110.20128782 -153.72052215 104.09555387 -152.08105469 97.99243164 C-150.33169292 91.41095878 -148.73603994 84.7953926 -147.15356445 78.17236328 C-130.98228374 10.50631475 -130.98228374 10.50631475 -103.75 -7.6875 C-72.75586339 -26.37764556 -28.19287673 -22.89751902 0 0 Z " fill="#FFFFFF" transform="translate(1093,323)"/>
  <path d="M0 0 C5.45591411 3.9602411 8.06516052 9.46359841 9.7890625 15.85546875 C14.49735868 48.58274319 -1.8806723 78.99677674 -20.9140625 104.43359375 C-25.4577485 110.15999951 -30.40261928 115.52197031 -35.375 120.875 C-35.98819092 121.53685303 -36.60138184 122.19870605 -37.2331543 122.88061523 C-41.51975523 127.43437947 -46.04856572 131.57747935 -50.8125 135.625 C-51.81916634 136.49982061 -52.8256917 137.37480349 -53.83203125 138.25 C-60.17292912 143.64198029 -66.62461045 148.40339346 -73.8125 152.625 C-74.3895166 152.96885742 -74.9665332 153.31271484 -75.56103516 153.66699219 C-85.1646227 159.36527168 -94.99459792 164.1919612 -105.27246094 168.54638672 C-108.00287847 169.70584315 -110.72372817 170.88637672 -113.4453125 172.06640625 C-126.47248555 177.65944307 -139.62802276 182.43753753 -153.12744141 186.75634766 C-155.50454316 187.52537185 -157.86931876 188.32029716 -160.23046875 189.13671875 C-170.38315305 192.63937099 -180.66447993 195.6349081 -190.98815918 198.58624268 C-199.43979151 201.00619743 -207.8146111 203.56329755 -216.125 206.4375 C-229.49576872 211.05453756 -243.12800474 214.78470032 -256.74731445 218.58911133 C-257.64503067 218.84127914 -258.54274689 219.09344696 -259.46766663 219.35325623 C-261.16694983 219.8301966 -262.86721487 220.30365698 -264.56858826 220.77308655 C-265.33260452 220.98767014 -266.09662079 221.20225372 -266.88378906 221.42333984 C-267.54864319 221.60794769 -268.21349731 221.79255554 -268.89849854 221.98275757 C-271.09815705 222.72085211 -272.87326296 223.32598759 -274.8125 224.625 C-276.07666565 227.07605382 -276.07666565 227.07605382 -276.88769531 230.02050781 C-277.21789673 231.10255493 -277.54809814 232.18460205 -277.88830566 233.29943848 C-279.26993059 238.27098883 -280.48812941 243.26066402 -281.609375 248.296875 C-281.8478717 249.34530579 -282.08636841 250.39373657 -282.33209229 251.47393799 C-283.08122451 254.77304016 -283.82200956 258.07394868 -284.5625 261.375 C-285.07366401 263.63293816 -285.58537803 265.89075187 -286.09765625 268.1484375 C-287.34228788 273.63920512 -288.58010048 279.1314747 -289.8125 284.625 C-288.60190918 284.30539307 -287.39131836 283.98578613 -286.14404297 283.65649414 C-258.77260234 276.43675286 -231.71362755 269.97056445 -203.6875 265.9375 C-202.93201874 265.82863464 -202.17653748 265.71976929 -201.39816284 265.60760498 C-162.08236278 259.97921303 -162.08236278 259.97921303 -148.8125 264.625 C-148.05839844 264.86992188 -147.30429688 265.11484375 -146.52734375 265.3671875 C-139.93622207 267.853988 -134.99045594 272.26908813 -131.8125 278.625 C-131.54097271 282.66088297 -131.58079853 286.70602578 -131.5625 290.75 C-131.5315625 292.42449219 -131.5315625 292.42449219 -131.5 294.1328125 C-131.42089096 310.90392952 -141.13943222 323.8432539 -152.53125 335.46875 C-173.58339605 356.11409129 -201.09545294 368.98148164 -227.8125 380.625 C-228.92560547 381.11371582 -230.03871094 381.60243164 -231.18554688 382.10595703 C-244.46252683 387.93483127 -257.77196422 393.68353644 -271.1875 399.1875 C-272.2587915 399.62787598 -273.33008301 400.06825195 -274.43383789 400.52197266 C-280.74201766 403.07950639 -287.09175126 405.46189192 -293.5078125 407.73046875 C-294.98661745 408.25998196 -296.46529652 408.78984684 -297.94384766 409.32006836 C-300.80137625 410.34437928 -303.66812698 411.33284611 -306.54443359 412.30297852 C-307.85299538 412.76841307 -309.16112382 413.23506835 -310.46875 413.703125 C-311.62181641 414.09918945 -312.77488281 414.49525391 -313.96289062 414.90332031 C-318.70931973 417.77102234 -319.38622099 421.9743491 -320.71630859 427.12475586 C-320.96203613 428.35073486 -321.20776367 429.57671387 -321.4609375 430.83984375 C-321.66752991 431.86080391 -321.66752991 431.86080391 -321.8782959 432.90238953 C-322.32360909 435.12076174 -322.75634307 437.34133621 -323.1875 439.5625 C-323.33801819 440.32512146 -323.48853638 441.08774292 -323.64361572 441.87347412 C-327.40923057 460.97098245 -330.83742908 480.25249583 -332.8125 499.625 C-332.07773438 499.31949219 -331.34296875 499.01398438 -330.5859375 498.69921875 C-320.08377683 494.41385434 -309.44381839 490.52436737 -298.77685547 486.67260742 C-292.92289313 484.54745553 -287.12236414 482.37121442 -281.390625 479.93359375 C-276.87910372 478.02352697 -272.47739679 476.52923453 -267.75 475.25 C-261.7322257 473.56350725 -255.89979074 471.60419662 -250.0625 469.375 C-230.21932546 461.85946523 -209.65959082 456.18794672 -189.27587891 450.33886719 C-187.15138352 449.72320569 -185.0334931 449.09095588 -182.91796875 448.4453125 C-177.39405612 446.78620952 -171.89544408 445.40650179 -166.23167419 444.33636475 C-158.12252976 442.80398024 -150.12728726 441.01325688 -142.15234375 438.890625 C-105.87301103 429.27057025 -68.08992739 420.62837041 -30.375 420.3125 C-29.22451172 420.28349609 -28.07402344 420.25449219 -26.88867188 420.22460938 C-16.55134561 420.14847043 -7.10410458 422.12309247 0.52734375 429.53515625 C6.92685856 437.59101606 7.261291 447.75269707 6.1875 457.625 C5.31232582 460.99294558 4.04694493 463.69391235 2.1875 466.625 C1.76339844 467.29789063 1.33929687 467.97078125 0.90234375 468.6640625 C-10.8334896 485.59766049 -32.30904556 495.6308476 -49.8125 505.625 C-50.47701172 506.0060791 -51.14152344 506.3871582 -51.82617188 506.77978516 C-60.67533629 511.8453922 -69.62619727 516.69873851 -78.65625 521.43359375 C-81.33620464 522.84007273 -84.00227897 524.26776028 -86.65625 525.72265625 C-93.70362782 529.57387342 -100.80659643 533.0391949 -108.19262695 536.19628906 C-111.70787672 537.69908303 -115.16367958 539.24981655 -118.5625 541 C-123.21697405 543.38493712 -127.97226964 545.50239766 -132.75 547.625 C-140.92894441 551.26699196 -149.00645498 555.0942301 -157.0625 559 C-174.62136498 567.49650398 -192.25909161 575.66124815 -210.30761719 583.06713867 C-216.04046554 585.43040892 -221.67244154 587.91708957 -227.25 590.625 C-234.8817251 594.31266438 -242.69754073 597.44398258 -250.58056641 600.55151367 C-259.47806032 604.06628432 -268.30865547 607.7251804 -277.125 611.4375 C-278.09617767 611.84637955 -278.09617767 611.84637955 -279.0869751 612.26351929 C-280.35406321 612.79715638 -281.62109309 613.33093175 -282.88806152 613.86485291 C-284.70856096 614.63200719 -286.52932713 615.3985284 -288.35009766 616.16503906 C-290.60651617 617.11648334 -292.86147749 618.0713932 -295.11474609 619.03027344 C-323.81013812 631.16319425 -360.41826452 637.22994039 -390.20898438 625.69726562 C-400.80959171 621.33914593 -410.03178058 616.01784358 -418.8125 608.625 C-419.52277344 608.07585938 -420.23304687 607.52671875 -420.96484375 606.9609375 C-442.67548279 589.50644354 -450.85990858 559.19075691 -453.8125 532.625 C-454.95142175 519.56631231 -455.052221 506.47592452 -455.0625 493.375 C-455.06450912 491.84596542 -455.06450912 491.84596542 -455.06655884 490.28604126 C-455.06264425 476.41313748 -454.67915541 462.63695105 -453.5 448.8125 C-453.44114624 448.12031372 -453.38229248 447.42812744 -453.32165527 446.71496582 C-452.22269545 434.16241922 -450.68319178 421.6522466 -449.22042847 409.13827515 C-448.67368275 404.42943939 -448.14101342 399.71904938 -447.60765076 395.00868225 C-444.52793951 367.87461633 -441.40614615 340.83290647 -436.26623535 314.00402832 C-435.76273364 311.36406469 -435.26705792 308.72270088 -434.77246094 306.08105469 C-423.21501228 244.39183308 -423.21501228 244.39183308 -417.66796875 222.99609375 C-416.84644858 219.75877913 -416.1229124 216.51858517 -415.4375 213.25 C-404.04531168 159.35147461 -404.04531168 159.35147461 -392.8125 139.625 C-392.2865625 138.67496094 -391.760625 137.72492188 -391.21875 136.74609375 C-387.90379164 130.97136576 -384.04236547 125.75860325 -379.8125 120.625 C-379.26851562 119.94566406 -378.72453125 119.26632812 -378.1640625 118.56640625 C-373.64237486 113.12127536 -368.48322428 108.83628206 -362.8125 104.625 C-362.11511719 104.10035156 -361.41773438 103.57570313 -360.69921875 103.03515625 C-338.96269302 87.60263233 -310.35953417 81.71010373 -284.77563477 75.87939453 C-275.32498082 73.72202727 -265.9883413 71.37328551 -256.6875 68.625 C-245.39532749 65.2937262 -234.03730852 62.36692132 -222.60864258 59.55123901 C-212.43455992 57.04443584 -202.29841131 54.44098593 -192.1875 51.6875 C-181.10131418 48.67385269 -169.96341418 45.98764289 -158.77587891 43.38238525 C-139.22130107 38.82495811 -119.99243611 33.55682441 -100.8125 27.625 C-99.42772859 27.20561738 -98.04279649 26.78676506 -96.65771484 26.3684082 C-89.16298723 24.08948787 -81.85146909 21.62878297 -74.6875 18.4375 C-73.81697998 18.05875732 -72.94645996 17.68001465 -72.04956055 17.28979492 C-66.46806357 14.84729794 -60.93914817 12.298838 -55.41552734 9.72875977 C-16.21776087 -8.40920934 -16.21776087 -8.40920934 0 0 Z " fill="#FFFFFF" transform="translate(1579.8125,332.375)"/>
</svg>